# MagicaVoxel @ Ephtracy

# material
mtllib grass_block.mtl
usemtl palette

# normals
vn -1 0 0
vn 1 0 0
vn 0 0 1
vn 0 0 -1
vn 0 -1 0
vn 0 1 0

# texcoords
vt 0.943359 0.5
vt 0.974609 0.5
vt 0.978516 0.5

# verts
v -3 0 3
v -3 0 1
v -3 0 -3
v -3 2 3
v -3 2 1
v -3 3 -0
v -3 3 -3
v -3 5 3
v -3 5 -0
v -3 5 -3
v -3 6 3
v -3 6 -3
v 3 0 3
v 3 0 -3
v 3 1 1
v 3 1 -2
v 3 3 1
v 3 3 -2
v 3 5 3
v 3 5 -3
v 3 6 3
v 3 6 -3
v -3 0 3
v -3 2 3
v -3 5 3
v -3 6 3
v -2 0 3
v -2 2 3
v -1 2 3
v -1 4 3
v 2 2 3
v 2 4 3
v 3 0 3
v 3 5 3
v 3 6 3
v -3 0 -3
v -3 3 -3
v -3 5 -3
v -3 6 -3
v -1 3 -3
v -1 5 -3
v 0 1 -3
v 0 3 -3
v 2 1 -3
v 2 3 -3
v 3 0 -3
v 3 5 -3
v 3 6 -3
v -3 0 3
v -2 0 3
v 3 0 3
v -3 0 1
v -2 0 1
v -1 0 1
v 1 0 1
v -1 0 -1
v 1 0 -1
v -3 0 -3
v 3 0 -3
v -3 6 3
v 3 6 3
v -3 6 -3
v 3 6 -3

# faces
f 4/1/1 2/1/1 1/1/1
f 5/2/1 3/2/1 2/2/1
f 5/1/1 2/1/1 4/1/1
f 6/2/1 5/2/1 4/2/1
f 6/2/1 3/2/1 5/2/1
f 7/2/1 3/2/1 6/2/1
f 8/2/1 6/2/1 4/2/1
f 9/1/1 7/1/1 6/1/1
f 9/2/1 6/2/1 8/2/1
f 10/1/1 7/1/1 9/1/1
f 11/3/1 9/3/1 8/3/1
f 11/3/1 10/3/1 9/3/1
f 12/3/1 10/3/1 11/3/1
f 13/2/2 14/2/2 15/2/2
f 15/2/2 14/2/2 16/2/2
f 13/2/2 15/2/2 17/2/2
f 15/1/2 16/1/2 17/1/2
f 16/2/2 14/2/2 18/2/2
f 17/1/2 16/1/2 18/1/2
f 13/2/2 17/2/2 19/2/2
f 17/2/2 18/2/2 19/2/2
f 18/2/2 14/2/2 20/2/2
f 19/2/2 18/2/2 20/2/2
f 19/3/2 20/3/2 21/3/2
f 21/3/2 20/3/2 22/3/2
f 27/1/3 24/1/3 23/1/3
f 28/2/3 25/2/3 24/2/3
f 28/1/3 24/1/3 27/1/3
f 29/2/3 28/2/3 27/2/3
f 29/2/3 25/2/3 28/2/3
f 30/2/3 25/2/3 29/2/3
f 31/2/3 29/2/3 27/2/3
f 31/1/3 30/1/3 29/1/3
f 32/2/3 25/2/3 30/2/3
f 32/1/3 30/1/3 31/1/3
f 33/2/3 31/2/3 27/2/3
f 33/2/3 32/2/3 31/2/3
f 34/3/3 26/3/3 25/3/3
f 34/2/3 32/2/3 33/2/3
f 34/2/3 25/2/3 32/2/3
f 35/3/3 26/3/3 34/3/3
f 36/2/4 37/2/4 40/2/4
f 37/1/4 38/1/4 40/1/4
f 38/3/4 39/3/4 41/3/4
f 40/1/4 38/1/4 41/1/4
f 36/2/4 40/2/4 42/2/4
f 40/2/4 41/2/4 42/2/4
f 42/2/4 41/2/4 43/2/4
f 36/2/4 42/2/4 44/2/4
f 42/1/4 43/1/4 44/1/4
f 43/2/4 41/2/4 45/2/4
f 44/1/4 43/1/4 45/1/4
f 36/2/4 44/2/4 46/2/4
f 44/2/4 45/2/4 46/2/4
f 41/3/4 39/3/4 47/3/4
f 46/2/4 45/2/4 47/2/4
f 45/2/4 41/2/4 47/2/4
f 47/3/4 39/3/4 48/3/4
f 52/1/5 50/1/5 49/1/5
f 53/2/5 51/2/5 50/2/5
f 53/1/5 50/1/5 52/1/5
f 54/2/5 51/2/5 53/2/5
f 55/2/5 51/2/5 54/2/5
f 56/2/5 53/2/5 52/2/5
f 56/2/5 54/2/5 53/2/5
f 56/3/5 55/3/5 54/3/5
f 57/2/5 51/2/5 55/2/5
f 57/3/5 55/3/5 56/3/5
f 58/2/5 56/2/5 52/2/5
f 58/2/5 57/2/5 56/2/5
f 59/2/5 51/2/5 57/2/5
f 59/2/5 57/2/5 58/2/5
f 60/3/6 61/3/6 62/3/6
f 62/3/6 61/3/6 63/3/6
